<?xml version="1.0" encoding="UTF-8"?>
<svg xmlns="http://www.w3.org/2000/svg" xmlns:xlink="http://www.w3.org/1999/xlink" width="48px" height="52px" viewBox="0 0 48 52" version="1.1">
<g id="surface1">
<path style=" stroke:none;fill-rule:nonzero;fill:rgb(74.117647%,96.862745%,96.862745%);fill-opacity:1;" d="M 39.46875 18.367188 L 39.46875 12.066406 L 34.246094 6.410156 C 33.699219 5.8125 33.699219 4.851562 34.246094 4.253906 C 34.796875 3.660156 35.6875 3.660156 36.234375 4.253906 L 41.457031 9.910156 C 41.984375 10.484375 42.28125 11.257812 42.28125 12.066406 L 42.28125 15.320312 Z M 39.46875 18.367188 "/>
<path style=" stroke:none;fill-rule:nonzero;fill:rgb(31.372549%,29.411765%,51.372549%);fill-opacity:1;" d="M 42.28125 26.863281 L 39.46875 21.414062 L 39.46875 44.636719 C 39.46875 45.476562 38.839844 46.160156 38.0625 46.160156 C 37.285156 46.160156 36.65625 45.476562 36.65625 44.636719 L 36.65625 32.957031 C 36.65625 29.589844 34.136719 26.863281 31.03125 26.863281 L 28.21875 28.386719 L 31.03125 29.910156 C 32.585938 29.910156 33.84375 31.273438 33.84375 32.957031 L 33.84375 44.636719 C 33.84375 47.160156 35.734375 49.207031 38.0625 49.207031 C 40.390625 49.207031 42.28125 47.160156 42.28125 44.636719 Z M 42.28125 26.863281 "/>
<path style=" stroke:none;fill-rule:nonzero;fill:rgb(96.078431%,13.72549%,7.843137%);fill-opacity:1;" d="M 28.21875 0.761719 L 25.40625 0.761719 L 25.40625 12.949219 L 31.03125 6.855469 L 31.03125 3.808594 C 31.03125 2.125 29.773438 0.761719 28.21875 0.761719 Z M 28.21875 0.761719 "/>
<path style=" stroke:none;fill-rule:nonzero;fill:rgb(100%,30.196078%,10.980392%);fill-opacity:1;" d="M 25.40625 0.761719 L 9.9375 0.761719 C 8.382812 0.761719 7.125 2.125 7.125 3.808594 L 7.125 6.855469 L 28.21875 14.472656 L 28.21875 3.808594 C 28.21875 2.125 26.960938 0.761719 25.40625 0.761719 Z M 25.40625 0.761719 "/>
<path style=" stroke:none;fill-rule:nonzero;fill:rgb(96.078431%,13.72549%,7.843137%);fill-opacity:1;" d="M 31.03125 32.957031 L 31.03125 49.714844 L 19.78125 49.714844 L 28.21875 32.957031 Z M 31.03125 32.957031 "/>
<path style=" stroke:none;fill-rule:nonzero;fill:rgb(100%,30.196078%,10.980392%);fill-opacity:1;" d="M 7.125 32.957031 L 28.21875 32.957031 L 28.21875 49.714844 L 7.125 49.714844 Z M 7.125 32.957031 "/>
<path style=" stroke:none;fill-rule:nonzero;fill:rgb(35.686275%,20%,39.215686%);fill-opacity:1;" d="M 31.03125 48.191406 L 28.21875 48.191406 L 28.21875 51.238281 L 31.03125 51.238281 C 31.808594 51.238281 32.4375 50.554688 32.4375 49.714844 C 32.4375 48.875 31.808594 48.191406 31.03125 48.191406 Z M 31.03125 48.191406 "/>
<path style=" stroke:none;fill-rule:nonzero;fill:rgb(31.372549%,29.411765%,51.372549%);fill-opacity:1;" d="M 29.625 49.714844 C 29.625 48.875 28.996094 48.191406 28.21875 48.191406 L 7.125 48.191406 C 6.347656 48.191406 5.71875 48.875 5.71875 49.714844 C 5.71875 50.554688 6.347656 51.238281 7.125 51.238281 L 28.21875 51.238281 C 28.996094 51.238281 29.625 50.554688 29.625 49.714844 Z M 29.625 49.714844 "/>
<path style=" stroke:none;fill-rule:nonzero;fill:rgb(48.627451%,94.117647%,93.333333%);fill-opacity:1;" d="M 28.21875 6.855469 L 22.59375 19.90625 L 28.21875 32.957031 L 31.03125 32.957031 L 31.03125 6.855469 Z M 28.21875 6.855469 "/>
<path style=" stroke:none;fill-rule:nonzero;fill:rgb(74.117647%,96.862745%,96.862745%);fill-opacity:1;" d="M 7.125 6.855469 L 7.125 32.957031 L 28.21875 32.957031 L 28.21875 23.816406 L 19.78125 16.859375 L 28.21875 9.902344 L 28.21875 6.855469 Z M 7.125 6.855469 "/>
<path style=" stroke:none;fill-rule:nonzero;fill:rgb(35.686275%,20%,39.215686%);fill-opacity:1;" d="M 21.1875 26.863281 L 19.125 28.386719 L 21.1875 29.910156 L 25.40625 29.910156 L 25.40625 26.863281 Z M 21.1875 26.863281 "/>
<path style=" stroke:none;fill-rule:nonzero;fill:rgb(31.372549%,29.411765%,51.372549%);fill-opacity:1;" d="M 16.96875 26.863281 L 14.90625 28.386719 L 16.96875 29.910156 L 21.1875 29.910156 L 21.1875 26.863281 Z M 16.96875 26.863281 "/>
<path style=" stroke:none;fill-rule:nonzero;fill:rgb(27.45098%,38.823529%,63.529412%);fill-opacity:1;" d="M 12.75 26.863281 L 16.96875 26.863281 L 16.96875 29.910156 L 12.75 29.910156 Z M 12.75 26.863281 "/>
<path style=" stroke:none;fill-rule:nonzero;fill:rgb(19.215686%,57.647059%,87.843137%);fill-opacity:1;" d="M 25.40625 9.902344 L 19.78125 16.859375 L 25.40625 23.816406 L 28.21875 23.816406 L 28.21875 9.902344 Z M 25.40625 9.902344 "/>
<path style=" stroke:none;fill-rule:nonzero;fill:rgb(14.901961%,67.058824%,100%);fill-opacity:1;" d="M 9.9375 9.902344 L 25.40625 9.902344 L 25.40625 23.816406 L 9.9375 23.816406 Z M 9.9375 9.902344 "/>
<path style=" stroke:none;fill-rule:nonzero;fill:rgb(96.078431%,13.72549%,7.843137%);fill-opacity:1;" d="M 39.46875 15.320312 L 38.0625 16.84375 L 38.0625 25.339844 L 39.46875 26.863281 L 42.28125 26.863281 L 42.28125 15.320312 Z M 39.46875 15.320312 "/>
<path style=" stroke:none;fill-rule:nonzero;fill:rgb(100%,30.196078%,10.980392%);fill-opacity:1;" d="M 38.0625 15.320312 C 37.285156 15.320312 36.65625 16.003906 36.65625 16.84375 L 36.65625 25.339844 C 36.65625 26.179688 37.285156 26.863281 38.0625 26.863281 L 39.46875 26.863281 L 39.46875 15.320312 Z M 38.0625 15.320312 "/>
<path style=" stroke:none;fill-rule:nonzero;fill:rgb(0%,0%,0%);fill-opacity:1;" d="M 28.921875 23.816406 L 28.921875 9.902344 C 28.921875 9.480469 28.605469 9.140625 28.21875 9.140625 L 9.9375 9.140625 C 9.550781 9.140625 9.234375 9.480469 9.234375 9.902344 L 9.234375 23.816406 C 9.234375 24.238281 9.550781 24.578125 9.9375 24.578125 L 28.21875 24.578125 C 28.605469 24.578125 28.921875 24.238281 28.921875 23.816406 Z M 27.515625 23.054688 L 10.640625 23.054688 L 10.640625 10.664062 L 27.515625 10.664062 Z M 12.75 26.101562 C 12.363281 26.101562 12.046875 26.441406 12.046875 26.863281 L 12.046875 29.910156 C 12.046875 30.332031 12.363281 30.671875 12.75 30.671875 L 25.40625 30.671875 C 25.792969 30.671875 26.109375 30.332031 26.109375 29.910156 L 26.109375 26.863281 C 26.109375 26.441406 25.792969 26.101562 25.40625 26.101562 Z M 20.484375 27.625 L 20.484375 29.148438 L 17.671875 29.148438 L 17.671875 27.625 Z M 13.453125 27.625 L 16.265625 27.625 L 16.265625 29.148438 L 13.453125 29.148438 Z M 24.703125 29.148438 L 21.890625 29.148438 L 21.890625 27.625 L 24.703125 27.625 Z M 24.703125 29.148438 "/>
<path style=" stroke:none;fill-rule:nonzero;fill:rgb(0%,0%,0%);fill-opacity:1;" d="M 41.953125 9.375 L 36.734375 3.714844 C 36.335938 3.285156 35.804688 3.046875 35.242188 3.046875 C 34.679688 3.046875 34.148438 3.285156 33.75 3.714844 C 32.925781 4.605469 32.925781 6.058594 33.75 6.949219 L 38.765625 12.382812 L 38.765625 14.558594 L 38.0625 14.558594 C 36.898438 14.558594 35.953125 15.585938 35.953125 16.84375 L 35.953125 25.339844 C 35.953125 26.601562 36.898438 27.625 38.0625 27.625 L 38.765625 27.625 L 38.765625 44.636719 C 38.765625 45.058594 38.449219 45.398438 38.0625 45.398438 C 37.675781 45.398438 37.359375 45.058594 37.359375 44.636719 L 37.359375 32.957031 C 37.359375 29.175781 34.519531 26.101562 31.03125 26.101562 C 30.644531 26.101562 30.328125 26.441406 30.328125 26.863281 L 30.328125 32.195312 L 7.828125 32.195312 L 7.828125 7.617188 L 30.328125 7.617188 L 30.328125 23.816406 C 30.328125 24.238281 30.644531 24.578125 31.03125 24.578125 C 31.417969 24.578125 31.734375 24.238281 31.734375 23.816406 L 31.734375 3.808594 C 31.734375 1.707031 30.15625 0 28.21875 0 L 9.9375 0 C 8 0 6.421875 1.707031 6.421875 3.808594 L 6.421875 47.5625 C 5.605469 47.875 5.015625 48.722656 5.015625 49.714844 C 5.015625 50.976562 5.960938 52 7.125 52 L 31.03125 52 C 32.195312 52 33.140625 50.976562 33.140625 49.714844 C 33.140625 48.722656 32.550781 47.875 31.734375 47.5625 L 31.734375 30.804688 C 32.550781 31.117188 33.140625 31.964844 33.140625 32.957031 L 33.140625 44.636719 C 33.140625 47.578125 35.347656 49.96875 38.0625 49.96875 C 40.777344 49.96875 42.984375 47.578125 42.984375 44.636719 L 42.984375 12.066406 C 42.984375 11.050781 42.617188 10.09375 41.953125 9.375 Z M 39.964844 11.527344 L 34.742188 5.871094 C 34.46875 5.574219 34.46875 5.089844 34.742188 4.792969 C 34.875 4.648438 35.054688 4.570312 35.242188 4.570312 C 35.429688 4.570312 35.605469 4.648438 35.738281 4.792969 L 40.960938 10.449219 C 41.359375 10.882812 41.578125 11.457031 41.578125 12.066406 L 41.578125 14.558594 L 40.171875 14.558594 L 40.171875 12.066406 C 40.171875 11.863281 40.097656 11.671875 39.964844 11.527344 Z M 37.359375 25.339844 L 37.359375 16.84375 C 37.359375 16.425781 37.675781 16.082031 38.0625 16.082031 L 41.578125 16.082031 L 41.578125 26.101562 L 38.0625 26.101562 C 37.675781 26.101562 37.359375 25.761719 37.359375 25.339844 Z M 30.328125 33.71875 L 30.328125 47.429688 L 7.828125 47.429688 L 7.828125 33.71875 Z M 9.9375 1.523438 L 28.21875 1.523438 C 29.382812 1.523438 30.328125 2.546875 30.328125 3.808594 L 30.328125 6.09375 L 7.828125 6.09375 L 7.828125 3.808594 C 7.828125 2.546875 8.773438 1.523438 9.9375 1.523438 Z M 31.03125 50.476562 L 7.125 50.476562 C 6.738281 50.476562 6.421875 50.136719 6.421875 49.714844 C 6.421875 49.292969 6.738281 48.953125 7.125 48.953125 L 31.03125 48.953125 C 31.417969 48.953125 31.734375 49.292969 31.734375 49.714844 C 31.734375 50.136719 31.417969 50.476562 31.03125 50.476562 Z M 38.0625 48.445312 C 36.125 48.445312 34.546875 46.738281 34.546875 44.636719 L 34.546875 32.957031 C 34.546875 31.117188 33.335938 29.578125 31.734375 29.226562 L 31.734375 27.679688 C 34.117188 28.050781 35.953125 30.277344 35.953125 32.957031 L 35.953125 44.636719 C 35.953125 45.898438 36.898438 46.921875 38.0625 46.921875 C 39.226562 46.921875 40.171875 45.898438 40.171875 44.636719 L 40.171875 27.625 L 41.578125 27.625 L 41.578125 44.636719 C 41.578125 46.738281 40 48.445312 38.0625 48.445312 Z M 38.0625 48.445312 "/>
</g>
</svg>
